<svg xmlns="http://www.w3.org/2000/svg" xmlns:xlink="http://www.w3.org/1999/xlink" version="1.1" x="0px" y="0px" viewBox="0 0 100 125" enable-background="new 0 0 100 100" xml:space="preserve"><g><path fill="none" stroke="#000000" stroke-width="3" stroke-linecap="round" stroke-linejoin="round" stroke-miterlimit="10" d="   M83.24,28.982c-0.061,0-0.119,0.008-0.179,0.009c0-0.003,0.001-0.006,0.001-0.009C83.062,16.842,73.221,7,61.08,7   c-8.865,0-16.486,5.26-19.962,12.819c-2.312-1.22-4.942-1.918-7.739-1.918c-7.25,0-13.4,4.652-15.672,11.128   c-0.312-0.026-0.627-0.047-0.947-0.047c-6.12,0-11.08,4.96-11.08,11.08c0,6.119,4.96,11.08,11.08,11.08h66.48   c6.12,0,11.08-4.961,11.08-11.08C94.32,33.942,89.36,28.982,83.24,28.982z"/><polygon fill="none" stroke="#000000" stroke-width="3" stroke-linecap="round" stroke-linejoin="round" stroke-miterlimit="10" points="   52.652,58.436 44.586,58.436 49.227,70.701 41.934,70.701 58.066,93.686 51.289,75.333 57.514,75.333  "/></g><text x="0" y="115" fill="#000000" font-size="5px" font-weight="bold" font-family="'Helvetica Neue', Helvetica, Arial-Unicode, Arial, Sans-serif">Created by Linseed Studio</text><text x="0" y="120" fill="#000000" font-size="5px" font-weight="bold" font-family="'Helvetica Neue', Helvetica, Arial-Unicode, Arial, Sans-serif">from the Noun Project</text></svg>